<?xml version="1.0" encoding="utf-8"?>
<!-- Generator: Adobe Illustrator 18.0.0, SVG Export Plug-In . SVG Version: 6.00 Build 0)  -->
<!DOCTYPE svg PUBLIC "-//W3C//DTD SVG 1.1//EN" "http://www.w3.org/Graphics/SVG/1.1/DTD/svg11.dtd">
<svg version="1.1" id="Layer_1" xmlns="http://www.w3.org/2000/svg" xmlns:xlink="http://www.w3.org/1999/xlink" x="0px" y="0px"
	 viewBox="0 0 800 800"  xml:space="preserve">
<line fill="none" stroke="none" stroke-miterlimit="10" x1="0" y1="400" x2="800" y2="400"/>
<g>
	<g>
<!-- 		<path d="M712.3,439.4H108.6c-6.6,0-12-5.4-12-12V138.1c0-6.6,5.4-12,12-12h603.8c6.6,0,12,5.4,12,12v289.3
	C724.3,434,718.9,439.4,712.3,439.4z"/> -->
	<path d="M436.7,380c0,0-69,71.1-92.9,35s-123.6,46.6-123.6,46.6
	s-130.6-57-98.7-80.9s-80.2-65.7-80.2-65.7s-24.4-143,22.1-134.5s15.4-93.7,15.4-93.7s100-84.1,107.2-40.4
	C193.3,90,295.4,5.1,295.4,5.1s110.4,28.4,82,67.2c-28.4,38.8,96.9,79.5,96.9,79.5s21.3,107.7-17,103.5S436.7,380,436.7,380z"/>
	</g>
</g>
</svg>